<svg xmlns:xlink="http://www.w3.org/1999/xlink" width="113" xmlns="http://www.w3.org/2000/svg" height="113" id="screenshot-d5fb068c-1c1a-803b-8003-4f4625b50f51" viewBox="0 0 113 113" style="-webkit-print-color-adjust: exact;" fill="none" version="1.1"><g id="shape-d5fb068c-1c1a-803b-8003-4f4625b50f51" height="1em" rx="0" ry="0" style="fill: rgb(0, 0, 0);"><g id="shape-d5fb068c-1c1a-803b-8003-4f4625b54243"><g class="fills" id="fills-d5fb068c-1c1a-803b-8003-4f4625b54243"><path rx="0" ry="0" d="M40.609,10.594L72.391,10.594C73.362,10.594,74.156,11.388,74.156,12.359L74.156,21.188L38.844,21.188L38.844,12.359C38.844,11.388,39.638,10.594,40.609,10.594ZZM28.250,12.359L28.250,21.188L14.125,21.188C6.334,21.188,0.000,27.522,0.000,35.313L0.000,91.813C0.000,99.603,6.334,105.938,14.125,105.938L98.875,105.938C106.666,105.938,113.000,99.603,113.000,91.813L113.000,35.313C113.000,27.522,106.666,21.188,98.875,21.188L84.750,21.188L84.750,12.359C84.750,5.540,79.210,0.000,72.391,0.000L40.609,0.000C33.790,0.000,28.250,5.540,28.250,12.359ZZM49.438,45.906C49.438,43.964,51.027,42.375,52.969,42.375L60.031,42.375C61.973,42.375,63.563,43.964,63.563,45.906L63.563,56.500L74.156,56.500C76.098,56.500,77.688,58.089,77.688,60.031L77.688,67.094C77.688,69.036,76.098,70.625,74.156,70.625L63.563,70.625L63.563,81.219C63.563,83.161,61.973,84.750,60.031,84.750L52.969,84.750C51.027,84.750,49.438,83.161,49.438,81.219L49.438,70.625L38.844,70.625C36.902,70.625,35.313,69.036,35.313,67.094L35.313,60.031C35.313,58.089,36.902,56.500,38.844,56.500L49.438,56.500L49.438,45.906ZZ" style="fill: rgb(255, 189, 129); fill-opacity: 1;"/></g></g></g></svg>