<svg xmlns:xlink="http://www.w3.org/1999/xlink" width="127.125" xmlns="http://www.w3.org/2000/svg" height="113" id="screenshot-d5fb068c-1c1a-803b-8003-4f39b09176d5" viewBox="0 0 127.125 113" style="-webkit-print-color-adjust: exact;" fill="none" version="1.1"><g id="shape-d5fb068c-1c1a-803b-8003-4f39b09176d5" height="1em" rx="0" ry="0" style="fill: rgb(0, 0, 0);"><g id="shape-d5fb068c-1c1a-803b-8003-4f39b09176d7"><g class="fills" id="fills-d5fb068c-1c1a-803b-8003-4f39b09176d7"><path rx="0" ry="0" d="M0.000,14.125C0.000,6.334,6.334,0.000,14.125,0.000L49.438,0.000L49.438,28.250C49.438,32.156,52.594,35.313,56.500,35.313L84.750,35.313L84.750,43.832C68.440,48.444,56.500,63.430,56.500,81.219C56.500,94.262,62.922,105.783,72.766,112.846C72.060,112.956,71.353,113.000,70.625,113.000L14.125,113.000C6.334,113.000,0.000,106.666,0.000,98.875L0.000,14.125ZZM84.750,28.250L56.500,28.250L56.500,0.000L84.750,28.250ZZM63.563,81.219C63.563,63.666,77.791,49.438,95.344,49.438C112.896,49.438,127.125,63.666,127.125,81.219C127.125,98.771,112.896,113.000,95.344,113.000C77.791,113.000,63.563,98.771,63.563,81.219ZZM110.197,71.662C108.829,70.294,106.578,70.294,105.209,71.662L91.812,85.059L85.478,78.725C84.110,77.356,81.859,77.356,80.490,78.725C79.122,80.093,79.122,82.344,80.490,83.713L89.319,92.541C90.687,93.909,92.938,93.909,94.306,92.541L110.197,76.650C111.565,75.282,111.565,73.031,110.197,71.662ZZ" style="fill: rgb(255, 189, 129); fill-opacity: 1;"/></g></g></g></svg>