<svg xmlns:xlink="http://www.w3.org/1999/xlink" width="141.252" xmlns="http://www.w3.org/2000/svg" height="113" id="screenshot-d5fb068c-1c1a-803b-8003-4f3b78ed17a2" viewBox="0 0 141.252 113" style="-webkit-print-color-adjust: exact;" fill="none" version="1.1"><g id="shape-d5fb068c-1c1a-803b-8003-4f3b78ed17a2" height="1em" rx="0" ry="0" style="fill: rgb(0, 0, 0);"><g id="shape-d5fb068c-1c1a-803b-8003-4f3b78ed17a4"><g class="fills" id="fills-d5fb068c-1c1a-803b-8003-4f3b78ed17a4"><path rx="0" ry="0" d="M45.909,77.688C71.267,77.688,91.815,60.296,91.815,38.844C91.815,17.391,71.267,0.000,45.909,0.000C20.550,0.000,0.002,17.391,0.002,38.844C0.002,47.363,3.247,55.242,8.742,61.664C7.970,63.739,6.822,65.571,5.608,67.116C4.549,68.484,3.467,69.544,2.673,70.272C2.276,70.625,1.945,70.912,1.724,71.088C1.614,71.177,1.525,71.243,1.481,71.265L1.437,71.309L1.437,71.309L1.437,71.309C0.223,72.214,-0.307,73.803,0.179,75.238C0.665,76.672,2.011,77.688,3.534,77.688C8.345,77.688,13.200,76.452,17.239,74.929C19.270,74.156,21.168,73.296,22.823,72.413C29.599,75.767,37.478,77.688,45.909,77.688ZZM98.877,38.844C98.877,63.629,77.006,82.300,51.095,84.529C56.458,100.950,74.247,113.000,95.346,113.000C103.777,113.000,111.656,111.080,118.454,107.725C120.109,108.608,121.985,109.469,124.016,110.241C128.054,111.764,132.910,113.000,137.721,113.000C139.244,113.000,140.612,112.007,141.076,110.550C141.539,109.094,141.032,107.504,139.796,106.600L139.796,106.600L139.796,106.600L139.752,106.555C139.707,106.511,139.619,106.467,139.509,106.379C139.288,106.202,138.957,105.938,138.560,105.562C137.765,104.834,136.684,103.775,135.624,102.406C134.411,100.861,133.263,99.007,132.491,96.955C137.986,90.554,141.230,82.675,141.230,74.134C141.230,53.653,122.493,36.857,98.723,35.401C98.811,36.526,98.855,37.674,98.877,38.844ZZ" style="fill: rgb(255, 189, 129); fill-opacity: 1;"/></g></g></g></svg>