<svg xmlns:xlink="http://www.w3.org/1999/xlink" width="84.75" xmlns="http://www.w3.org/2000/svg" height="113" id="screenshot-d5fb068c-1c1a-803b-8003-4f45b01ac09f" viewBox="0 0 84.75 113" style="-webkit-print-color-adjust: exact;" fill="none" version="1.1"><g id="shape-d5fb068c-1c1a-803b-8003-4f45b01ac09f" height="1em" rx="0" ry="0" style="fill: rgb(0, 0, 0);"><g id="shape-d5fb068c-1c1a-803b-8003-4f45b01ac0a2"><g class="fills" id="fills-d5fb068c-1c1a-803b-8003-4f45b01ac0a2"><path rx="0" ry="0" d="M42.375,0.000C33.150,0.000,25.293,5.893,22.401,14.125L14.125,14.125C6.334,14.125,0.000,20.459,0.000,28.250L0.000,98.875C0.000,106.666,6.334,113.000,14.125,113.000L70.625,113.000C78.416,113.000,84.750,106.666,84.750,98.875L84.750,28.250C84.750,20.459,78.416,14.125,70.625,14.125L62.349,14.125C59.457,5.893,51.600,0.000,42.375,0.000ZZM42.375,14.125C46.276,14.125,49.438,17.287,49.438,21.188C49.438,25.088,46.276,28.250,42.375,28.250C38.474,28.250,35.313,25.088,35.313,21.188C35.313,17.287,38.474,14.125,42.375,14.125ZZM67.314,60.252L39.064,88.502C36.990,90.577,33.635,90.577,31.583,88.502L17.436,74.377C15.361,72.302,15.361,68.948,17.436,66.895C19.510,64.843,22.865,64.821,24.917,66.895L35.290,77.268L59.811,52.748C61.885,50.673,65.240,50.673,67.292,52.748C69.345,54.823,69.367,58.177,67.314,60.252ZZ" style="fill: rgb(255, 189, 129); fill-opacity: 1;"/></g></g></g></svg>